<svg width="21" height="19" viewBox="0 0 21 19" fill="none" xmlns="http://www.w3.org/2000/svg">
<path d="M10.4993 18.2906L9.10977 17.0448C7.49657 15.5913 6.16289 14.3375 5.10872 13.2833C4.05456 12.2291 3.21602 11.2868 2.5931 10.4562C1.97018 9.60968 1.53095 8.83503 1.27539 8.13225C1.03581 7.42948 0.916016 6.71073 0.916016 5.976C0.916016 4.47461 1.41914 3.2208 2.42539 2.21454C3.43164 1.20829 4.68546 0.70517 6.18685 0.70517C7.01741 0.70517 7.80803 0.880864 8.55872 1.23225C9.30942 1.58364 9.95629 2.07878 10.4993 2.71767C11.0424 2.07878 11.6893 1.58364 12.44 1.23225C13.1907 0.880864 13.9813 0.70517 14.8119 0.70517C16.3132 0.70517 17.5671 1.20829 18.5733 2.21454C19.5796 3.2208 20.0827 4.47461 20.0827 5.976C20.0827 6.71073 19.9549 7.42948 19.6993 8.13225C19.4598 8.83503 19.0285 9.60968 18.4056 10.4562C17.7827 11.2868 16.9441 12.2291 15.89 13.2833C14.8358 14.3375 13.5021 15.5913 11.8889 17.0448L10.4993 18.2906ZM10.4993 15.7031C12.0327 14.3295 13.2945 13.1555 14.2848 12.1812C15.275 11.1909 16.0577 10.3364 16.6327 9.61767C17.2077 8.88295 17.607 8.23607 17.8306 7.67705C18.0542 7.10205 18.166 6.53503 18.166 5.976C18.166 5.01767 17.8466 4.21906 17.2077 3.58017C16.5688 2.94128 15.7702 2.62184 14.8119 2.62184C14.0612 2.62184 13.3664 2.83746 12.7275 3.26871C12.0886 3.68399 11.6493 4.21906 11.4098 4.87392H9.58893C9.34935 4.21906 8.91011 3.68399 8.27122 3.26871C7.63234 2.83746 6.93754 2.62184 6.18685 2.62184C5.22852 2.62184 4.4299 2.94128 3.79102 3.58017C3.15213 4.21906 2.83268 5.01767 2.83268 5.976C2.83268 6.53503 2.94449 7.10205 3.1681 7.67705C3.39171 8.23607 3.79102 8.88295 4.36602 9.61767C4.94102 10.3364 5.72365 11.1909 6.71393 12.1812C7.70421 13.1555 8.96602 14.3295 10.4993 15.7031Z" fill="white"/>
</svg>
