<?xml version="1.0" encoding="UTF-8"?>
<svg id="Layer_1" data-name="Layer 1" xmlns="http://www.w3.org/2000/svg" viewBox="0 0 2395.29 788.87">
  <defs>
    <style>
      .cls-1 {
        fill: #a12724;
      }

      .cls-2 {
        fill: #81201c;
      }

      .cls-3 {
        fill: #373537;
      }

      .cls-4 {
        fill: #171415;
      }

      .cls-5 {
        fill: #464749;
      }

      .cls-6 {
        fill: #fff9e3;
      }

      .cls-7 {
        fill: #373537;
      }

      .cls-8 {
        fill: #ccad77;
      }

      .cls-9 {
        fill: #5a5d5e;
      }

      .cls-10 {
        fill: #282424;
      }

      .cls-11 {
        fill: #f9e39a;
      }
    </style>
  </defs>
  <g>
    <path class="cls-6" d="M744.51,331.73h71.02l25.96,93.4c3.88,13.43,12.24,48.64,12.24,48.64h.6s8.36-35.21,11.94-48.64l26.26-93.4h71.62v213.37h-48.34v-107.43c0-8.65.9-42.67.9-42.67h-.6s-7.46,31.93-9.85,39.69l-30.74,110.41h-43.57l-30.44-110.12c-2.39-7.76-9.85-39.99-9.85-39.99h-.6s.9,34.32.9,42.97v107.13h-47.45v-213.37Z"/>
    <path class="cls-6" d="M983.54,469c0-45.96,32.83-80.87,81.77-80.87s81.47,34.91,81.47,80.87-32.23,80.87-81.47,80.87-81.77-34.91-81.77-80.87ZM1097.53,469c0-27.75-11.34-46.55-32.53-46.55s-32.23,18.8-32.23,46.55,11.04,46.25,32.23,46.25,32.53-18.5,32.53-46.25Z"/>
    <path class="cls-6" d="M1144.68,392.3h50.13l20.89,68.93c4.48,15.22,8.36,30.74,8.36,30.74h.6s3.88-15.52,8.36-30.74l21.19-68.93h48.64l-52.82,152.79h-52.52l-52.82-152.79Z"/>
    <path class="cls-6" d="M1313.58,331.73h48.64v39.39h-48.64v-39.39ZM1313.58,392.3h48.64v152.79h-48.64v-152.79Z"/>
    <path class="cls-6" d="M1378.64,468.4c0-45.66,31.93-80.57,78.48-80.57,21.78,0,39.09,7.16,52.22,19.1,18.2,16.71,27.16,43.27,26.86,74.31h-109.82c2.98,20.59,14.32,33.42,34.32,33.42,12.83,0,21.19-5.67,25.37-15.22h47.45c-3.28,13.73-12.24,26.86-25.66,36.11-12.83,8.95-28.35,14.03-47.75,14.03-50.43,0-81.47-34.91-81.47-81.17ZM1486.96,452.29c-1.79-18.2-13.13-29.84-28.95-29.84-18.5,0-28.05,11.64-31.33,29.84h60.28Z"/>
    <path class="cls-6" d="M1601.85,331.73h102.06c42.38,0,74.6,21.78,74.6,61.47,0,24.77-12.23,42.97-37,51.63v.9c18.5,6.27,28.05,17.9,31.04,39.09,4.48,28.05,1.49,54.91,8.95,57.59v2.69h-51.33c-5.67-3.28-4.77-28.35-8.06-49.54-2.69-19.7-12.83-30.44-35.51-30.44h-31.93v79.98h-52.82v-213.37ZM1694.36,426.02c20.89,0,31.63-9.85,31.63-25.96s-10.15-26.56-30.44-26.56h-40.88v52.52h39.69Z"/>
    <path class="cls-6" d="M1790.74,469c0-45.96,32.83-80.87,81.77-80.87s81.47,34.91,81.47,80.87-32.23,80.87-81.47,80.87-81.77-34.91-81.77-80.87ZM1904.74,469c0-27.75-11.34-46.55-32.53-46.55s-32.23,18.8-32.23,46.55,11.04,46.25,32.23,46.25,32.53-18.5,32.53-46.25Z"/>
    <path class="cls-6" d="M1963.23,502.42c0-33.72,26.86-43.87,58.49-48.05,28.65-3.58,38.79-6.56,38.79-17.01,0-9.85-6.27-16.41-20.89-16.41-15.52,0-23.28,6.86-24.77,19.7h-44.76c1.19-28.35,22.98-52.52,69.23-52.52,22.98,0,38.5,4.18,49.54,12.53,13.13,9.55,19.4,24.47,19.4,43.57v76.99c0,12.23,1.19,19.1,5.37,21.78v2.09h-47.15c-2.39-3.28-3.88-9.25-5.07-17.01h-.6c-8.95,12.83-22.38,20.89-45.36,20.89-30.44,0-52.22-16.41-52.22-46.55ZM2061.7,490.48v-18.2c-6.27,3.28-15.22,5.67-25.07,8.06-18.8,4.18-26.56,8.95-26.56,20.59,0,12.23,8.95,17.01,20.89,17.01,18.2,0,30.74-11.04,30.74-27.45Z"/>
    <path class="cls-6" d="M2122.57,495.56h45.96c1.79,15.22,11.94,22.68,28.05,22.68,14.62,0,23.87-5.37,23.87-15.22,0-13.73-18.5-15.22-38.79-18.8-26.56-4.48-54.91-11.64-54.91-47.45,0-32.23,29.84-48.94,65.95-48.94,43.27,0,66.55,18.8,68.93,48.94h-44.76c-1.79-13.73-11.04-17.9-24.47-17.9-11.94,0-21.19,4.48-21.19,14.03,0,10.74,17.31,12.24,36.71,15.82,26.86,4.48,58.49,11.34,58.49,50.43,0,33.42-29.54,50.73-69.53,50.73-44.76,0-72.81-20.59-74.31-54.31Z"/>
    <path class="cls-6" d="M2289.69,504.81v-82.06h-20.29v-30.44h20.29v-48.34h47.45v48.34h27.75v30.44h-27.75v71.62c0,11.94,6.57,14.92,17.01,14.92,4.18,0,8.95-.3,10.74-.3v35.51c-4.18,1.19-13.43,2.39-26.56,2.39-28.35,0-48.64-9.25-48.64-42.08Z"/>
  </g>
  <g>
    <g>
      <path class="cls-1" d="M139.4,289.92c-7.43,2.32-11.59,6.8-15.21,11.82l39.53,421.52c-3.12-3.1-55.93-17.39-65.38-16.88-23.06-139.6-39.89-280.03-60.82-419.84l101.88,3.38Z"/>
      <path class="cls-1" d="M589.48,295.55c-12.3,86.69-24.95,173.39-38.01,260.01-2.04-.26-14.68-26.19-19.77-19.7-.26,45.26-15.91,89.22-39.53,130.57l-28.89,39.96c12.26-131.14,23.65-262.37,38.01-393.39.81-11.16-7.45-18.91-19.77-24.2,35.23-1.61,70.38-1.14,105.68-1.13l2.28,7.88Z"/>
      <path class="cls-2" d="M594.05,266.29l-4.56,29.26-2.28-7.88c-35.3-.02-70.45-.48-105.68,1.13-7.63.35-13.36-2.43-22.81,0-43-2.74-86.24-.71-129.25,0-11.98.2-15.73-5.77-31.93,1.13.67-3.38-4.06-2.19-6.84-2.25-40.64-.87-81.83-.28-122.41,1.13-11.75.41-15.14-3.17-28.89,1.13l-101.88-3.38c-1-6.69-3.74-13.4-3.04-20.26h559.57Z"/>
      <path class="cls-2" d="M551.47,555.56c-9.15,60.72-15.01,124.53-27.37,184.59-7.9,38.35-17.53,35.94-66.9,37.14.1-23.72,3.88-47.31,6.08-70.91l28.89-39.96c23.62-41.35,39.27-85.31,39.53-130.57,5.09-6.49,17.73,19.44,19.77,19.7Z"/>
      <path class="cls-8" d="M604.69,246.03c11.17,6.7,3.11,18.77-10.64,20.26H34.48c-13.76-2.45-23.17-12.32-10.64-20.26l11.4,5.63h556.53l12.92-5.63Z"/>
      <path class="cls-11" d="M171.33,241.52c10.25-.04,21.36,1.16,31.93,1.13,56.75-.18,113.52-.12,170.3,0,40.94.08,82.15-.23,123.17,0,.51,0,1.01,0,1.52,0,28.36.17,60.41-1.52,88.19,0,2.96.16,5.08.17,7.6-1.13.97,3.58,5.68,1.52,10.64,4.5l-12.92,5.63H35.24l-11.4-5.63c5.73-3.63,7.17-2.74,13.69-3.38,35.02-3.42,95.85-.97,133.81-1.13Z"/>
      <path class="cls-2" d="M163.73,723.27c1.25,1.25,1.13,2.07,1.52,3.38,4.02,13.57-.75,35.21,4.56,49.52-1.16.07-1.68.17-1.52,1.13-44.13-1.21-56.15,1.29-63.86-33.77-2.7-12.27-4.04-24.8-6.08-37.14,9.45-.5,62.26,13.78,65.38,16.88Z"/>
      <path class="cls-8" d="M168.29,288.8c9.11,5.31,15.18,11.2,18.25,19.7,11.04,142.03,23.1,283.97,33.45,426.03,1.03,14.18,2.75,28.62,4.56,42.77-18.69-.17-37.6.51-56.26,0-.16-.96.36-1.06,1.52-1.13,16.59-.95,34.22.7,50.94,0,.43-6.11-.99-39.46-6.08-41.65l-49.42-7.88c-.39-1.31-.27-2.13-1.52-3.38l-39.53-421.52c3.62-5.02,7.78-9.5,15.21-11.82,13.75-4.3,17.14-.72,28.89-1.13Z"/>
      <path class="cls-8" d="M481.52,288.8c12.32,5.29,20.58,13.04,19.77,24.2-14.36,131.02-25.75,262.25-38.01,393.39-2.21,23.6-5.98,47.19-6.08,70.91-18.76.46-37.77-1.28-56.26-1.13.11-.72-.22-1.67,0-2.25,14.97,4.82,34.5,1.09,50.94,2.25,4.31-2.2,6.75-54.04,7.6-61.91-13.19,17.99-28.77,39.98-57.02,46.15,11.65-150.66,24.85-301.25,36.49-451.92,1.79-6.52,11.14-17.48,19.77-19.7,9.45-2.43,15.18.35,22.81,0Z"/>
      <path class="cls-1" d="M458.72,288.8c-8.63,2.22-17.98,13.18-19.77,19.7-11.64,150.67-24.85,301.26-36.49,451.92-.4,5.19.5,8.08-1.52,13.51-.22.59.11,1.53,0,2.25-19.13.16-38.52,1.04-57.78,1.13v-473.3l-13.69-15.2c43.01-.71,86.25-2.74,129.25,0Z"/>
      <path class="cls-8" d="M329.47,288.8l13.69,15.2v473.3c-19.74.09-39.57.09-59.3,0v-473.3c3.07-5.53,6.34-10.94,13.69-14.07,16.2-6.89,19.95-.93,31.93-1.13Z"/>
      <path class="cls-2" d="M283.85,731.15v46.15c-19.74-.09-39.56.18-59.3,0-1.81-14.15-3.53-28.59-4.56-42.77,20.51,2.05,44.32,2.14,63.86-3.38Z"/>
      <path class="cls-1" d="M297.53,289.92c-7.35,3.13-10.62,8.54-13.69,14.07v427.15c-19.55,5.51-43.35,5.43-63.86,3.38-10.35-142.06-22.41-284-33.45-426.03-3.07-8.5-9.13-14.38-18.25-19.7,40.57-1.41,81.77-2,122.41-1.13,2.78.06,7.51-1.13,6.84,2.25Z"/>
      <path class="cls-8" d="M169.81,776.17c-5.31-14.32-.54-35.95-4.56-49.52l49.42,7.88c5.09,2.19,6.51,35.54,6.08,41.65-16.72.7-34.35-.95-50.94,0Z"/>
      <path class="cls-8" d="M400.93,773.92c2.02-5.43,1.12-8.32,1.52-13.51,28.25-6.17,43.83-28.16,57.02-46.15-.85,7.87-3.3,59.71-7.6,61.91-16.44-1.16-35.96,2.57-50.94-2.25Z"/>
    </g>
    <g>
      <path class="cls-5" d="M255.33,89.71l-22.81,15.21c-.57-3.16.67-7.68,0-10.65,8.74-4.14,7.47-13.28,10.65-21.29,3.89,5.52,6.97,12.19,12.16,16.73Z"/>
      <path class="cls-7" d="M586.81,243.29c-27.78-2.06-59.83.22-88.19,0-3.35-15.05,17.36-17.28,18.25-19.01,2.23-4.36-3.15-23.13,3.04-28.89-6.26-2.45-5.53,8.86-6.84,9.88-8.67,6.75-3.13-17.97,12.16-22.81,16.98-5.37,35.59,4.55,24.33,22.81,2.19-9.46-4.73-16.51-14.45-15.97,12.94,6.67,5.62,25.93,6.08,27.37,2,6.26,25.4,9.12,31.17,11.4l3.8-2.28-18.25-7.6c17.54-8.82,32.57,8.2,28.89,25.09Z"/>
      <path class="cls-9" d="M275.1,101.12l-24.33,19.01c-9.11-9.37-16.31-4.45-18.25-15.2l22.81-15.21c5.49,4.79,13.35,8.01,19.77,11.4Z"/>
      <g>
        <path class="cls-3" d="M395.98,191.59c-11.16,1.36-10.55-12.68-14.45-17.48-13.58-16.72-31.61-12.26-33.45-13.69-4.87-3.79-1.55-54.09-40.3-47.9-25,4-18.45,27.98-23.57,41.82-1.08,2.92-17.41,2-22.05,3.8-1.95.76-17.38,17.38-17.48,6.84-.03-3.02,28.73-21.56,6.08-44.85l24.33-19.01c-6.41-3.4-14.28-6.62-19.77-11.4-5.19-4.53-8.27-11.21-12.16-16.73,8.33-20.98,11.77-27.68,38.01-25.85-.39.81.24,3.23,0,4.56,4.94-.11,17.83,3.57,19.01,3.04,2.61-1.17,4.03-13.93,6.84-17.49,11.19-14.2,22.9,1.65,21.29,15.97,8.11,3.18,16.41,5.37,24.32,9.13l19.77,19.77c-7.87,48.57-45.34.86-71.47,1.52-5.1,2.64-21.79,8.6-27.37,7.6l-3.8,4.56c8.14,3.54,12.15,6.99,21.29,6.08,3.49-.35,15.81-7.71,16.72-7.61,1.67.18,18.8,19.1,25.85,21.29,25.6,7.95,50.33-7.42,47.9-34.97,6.35,6.89,17.9,9.57,19.77,24.33-19.09,1.72-31.27,15.41-22.81,34.21,3.77,8.37,20.95,18.35,21.29,19.77.39,1.64-8.82,24.41-3.8,32.69Z"/>
        <g>
          <path class="cls-4" d="M333.64,115.56c-7.05-2.19-24.18-21.1-25.85-21.29-.91-.1-13.23,7.26-16.72,7.61-9.14.9-13.15-2.55-21.29-6.08l3.8-4.56c5.58,1,22.27-4.96,27.37-7.6,26.13-.66,63.6,47.05,71.47-1.52.08-.49,5.26,1.82,0-6.85-4.49-7.39-12.61-9.52-19.77-12.92-7.91-3.75-16.22-5.94-24.32-9.13,1.62-14.31-10.1-30.17-21.29-15.97-2.81,3.56-4.23,16.32-6.84,17.49-1.18.53-14.07-3.16-19.01-3.04.24-1.34-.39-3.76,0-4.56,4.3-8.81,9.46-24.04,17.49-28.89,14.04-8.5,32.29-3.09,40.29,11.4,3.32,6.01,5.33,24.75,6.08,25.84.6.88,16.64,3.23,20.52,5.33,7.22,3.88,10.93,14.29,15.97,19.77,2.44,27.55-22.29,42.92-47.9,34.97Z"/>
          <path class="cls-5" d="M307.79,22.81c14.68-3.48,26.26,5.86,26.61,20.53-4.8-7.98-12.24-20.83-23.57-17.49-6.56,1.94-8.78,23.51-15.97,12.92,1.31-5.76,6.63-14.47,12.92-15.97Z"/>
          <path class="cls-7" d="M372.42,82.11l-19.77-19.77c7.17,3.4,15.28,5.53,19.77,12.92,5.26,8.67.08,6.36,0,6.85Z"/>
        </g>
      </g>
      <g>
        <path class="cls-4" d="M484.94,238.73c3.46.35,13.52,1.41,12.16,4.56-41.01-.31-82.22.11-123.17,0-.18-6.16-1.67-8.83,0-15.21.15,7.6,5.11-2.79,6.08.76.39,1.41-2.46,9.77.76,11.4,1.22.62,26.1.5,27.37,0,.81-.32,6.56-11.91,10.64-13.69,1.79-.77,17.93-3.08,19.77-3.04,18.61.36,26.24,13.19,46.38,15.21Z"/>
        <g>
          <path class="cls-7" d="M484.94,238.73c-20.13-2.01-27.77-14.85-46.38-15.21-1.84-.04-17.98,2.27-19.77,3.04-4.09,1.77-9.84,13.37-10.64,13.69-1.27.5-26.15.62-27.37,0-3.22-1.63-.37-9.99-.76-11.4-.97-3.55-5.93,6.84-6.08-.76,1-3.8,11.28-21.01,14.45-22.81,4.98-2.83,21.64-1.96,23.57-6.84,2.86-7.24-2.27-24.52,10.64-33.45-2.29-3.94-19.63,7.71-17.49,14.45-5.95-22.64,33.75-28.32,44.86-9.88,3.95,6.55,5.9,24.97-2.28,19.01-1.17-.86-.11-24.92-14.45-20.53,8.93,2.78,8.9,19.63,12.92,23.57.59.58,5.4-.59,6.08,0,2.37,2.04,3.85,7.26,4.56,7.6,10.18,4.92,44.56-2.9,38.01,25.85-3.71-14.63-22.25-21.94-35.73-19.01,17.36,3.24,38.56,12.86,25.85,32.69Z"/>
          <path class="cls-4" d="M392.94,208.32c1.07-.22,3.27-.33,3.8.76l-15.97,15.97c-3.88-1.49,8.53-15.96,12.16-16.73Z"/>
        </g>
      </g>
      <g>
        <path class="cls-7" d="M203.63,243.29c-10.57.05-21.69-1.58-31.93-1.52-3.54-13.15,17.39-22.98,25.09-30.41,1.86-1.8-4.21-1.66-2.28-3.8,2.66-2.95,6.52.89,6.84.76,10.67-4.37,6.25-27.24,17.49-35.73-8.9-3.15-12.59,6.41-17.49,11.4-1.75-28.69,53.36-17.5,44.86,6.84-6.11,17.5-6.88-20.94-18.25-15.21,5.36,2.74,8.03,20.3,9.12,21.29,1.94,1.75,6.1.13,6.84.76,3.09,2.62,1.74,6.24,4.56,7.6,1.62.78,7.58-.78,9.12,0,13.71,6.96,28.93,13.3,21.29,31.93l-4.56-9.12c-1.03,28.03-18.66,1.57-30.41-1.52-11.89-3.13-38.59,1.17-40.3,16.73Z"/>
        <path class="cls-4" d="M250.01,208.32c5.53-2.81,25.22,14.01,25.09,15.97-.44,6.56-22.27-14.06-25.09-15.97Z"/>
      </g>
      <g>
        <path class="cls-4" d="M424.11,116.32l-28.13,6.85c-1.89-4.47,6.65-8.66,9.12-9.13,6.12-1.17,13.12.71,19.01,2.28Z"/>
        <path class="cls-4" d="M84.27,162.7l16.73-21.29c-4.88.8-23.02,17.56-16.73,21.29ZM84.27,162.7l16.73-21.29c-4.88.8-23.02,17.56-16.73,21.29ZM583.02,212.88c-4.65-2.34-21.41-2.88-22.05-3.8-3.84-5.46,7.89-25.39-15.96-35.74-4.54-1.97-25.81-5.21-30.41-9.12-2.6-2.21-3.05-16.41-8.36-23.57-6.05-8.17-23.69-12.42-24.33-13.68-3.18-6.24,3.84-26.6-9.88-37.26-27.66-21.48-44.02,17.44-47.14,18.25-1.15.3-17.08-3.63-23.57-3.04-19.09,1.72-31.27,15.41-22.81,34.21,3.77,8.37,20.95,18.35,21.29,19.77.39,1.64-8.82,24.41-3.8,32.69-11.16,1.36-10.55-12.68-14.45-17.48-13.58-16.72-31.61-12.26-33.45-13.69-4.87-3.79-1.55-54.09-40.3-47.9-25,4-18.45,27.98-23.57,41.82-1.08,2.92-17.41,2-22.05,3.8-1.95.76-17.38,17.38-17.48,6.84-.03-3.02,28.73-21.56,6.08-44.85-9.11-9.37-16.31-4.45-18.25-15.2-.57-3.16.67-7.68,0-10.65-3.38-15.06-9.11-29.45-28.13-25.85-10.63,2.02-17.34,20.37-19.77,21.29-11.9,4.53-31.57-4.52-31.93,22.81-31.77-46.2-37.56,14.12-48.66,19.77-7.71,3.93-16.23-.94-25.09,12.93-9.16,14.36-2.5,27-3.04,28.89-1.12,3.91-19.66.36-21.29,27.37-.03.41,3.56,6.49,3.04,7.61-.99,2.13-36.23,10.91-20.22,33.58.14.21.29.42.45.64,13.14-1.73,29.92-2.35,47.76-2.46,2.81,0,5.64-.01,8.5,0,27.29.06,56.08,1.06,77.55.95-.03-.08-.04-.17-.06-.25h0c-.06-.24-.11-.46-.15-.69-.04-.23-.08-.46-.11-.68-.01-.09-.02-.18-.03-.26-.01-.13-.03-.25-.03-.37,0-.06-.01-.13-.01-.2,0-.18-.01-.36-.01-.53s0-.35.01-.52c0-.21.03-.42.04-.63.02-.16.04-.32.06-.47.03-.18.05-.36.09-.53.03-.18.07-.35.11-.53.04-.17.08-.33.13-.5,0-.01,0-.03.01-.04,0,0,0-.01,0-.02.04-.16.1-.32.15-.48.03-.1.06-.2.1-.29.01-.04.03-.09.04-.13.04-.13.1-.27.15-.4.11-.27.22-.53.35-.8.1-.2.19-.41.3-.61,0-.02.02-.03.03-.05.02-.03.03-.06.04-.08.09-.16.18-.32.27-.48,0-.01.02-.03.03-.04.13-.22.25-.43.39-.66.03-.04.05-.08.08-.12.14-.22.29-.44.44-.66,0,0,0-.01.01-.02.17-.24.34-.48.52-.71.18-.24.36-.47.55-.7.62-.78,1.31-1.54,2.04-2.29.22-.23.45-.45.68-.68.15-.15.31-.3.46-.45.15-.15.31-.3.48-.45.16-.15.32-.3.48-.45.29-.27.59-.53.9-.79.12-.11.25-.22.37-.32.25-.21.5-.42.74-.62.08-.07.17-.14.25-.21.39-.32.78-.64,1.18-.95.39-.31.79-.62,1.19-.93.35-.27.71-.54,1.06-.81,1.07-.8,2.14-1.58,3.19-2.35.35-.25.7-.51,1.04-.76.52-.38,1.02-.74,1.52-1.11.5-.36.99-.73,1.46-1.08.32-.24.62-.47.93-.71.15-.11.3-.23.45-.34.3-.24.59-.46.87-.69.84-.68,1.6-1.34,2.27-1.99,1.86-1.79-4.21-1.65-2.28-3.8,2.66-2.95,6.52.89,6.84.76,10.67-4.37,6.25-27.24,17.49-35.73-8.9-3.15-12.59,6.41-17.49,11.4-1.75-28.69,53.36-17.5,44.86,6.84-6.12,17.5-6.88-20.94-18.25-15.2,5.35,2.74,8.03,20.3,9.12,21.29,1.94,1.75,6.1.13,6.84.76,3.09,2.62,1.74,6.24,4.56,7.61,1.62.78,7.58-.78,9.13,0,13.71,6.96,28.93,13.29,21.29,31.93l-4.56-9.13c-1.02,28.03-18.67,1.58-30.41-1.51-2.63-.69-5.97-1.02-9.61-.95-.15,0-.29,0-.43,0-.15,0-.29,0-.43.01-.04,0-.1,0-.14,0-.27.01-.53.03-.81.04-.08,0-.17,0-.25.01-.15,0-.31.02-.46.03-.36.03-.72.06-1.08.09-.36.03-.73.07-1.09.11-.39.04-.78.09-1.17.14-.06,0-.11.01-.17.03-.42.06-.84.11-1.26.18-.22.03-.43.07-.65.11-.38.06-.74.13-1.12.2-.22.04-.43.08-.64.13-.12.03-.24.05-.36.08-.31.06-.62.13-.92.2-.39.09-.77.18-1.15.29-.33.08-.66.17-.99.27-.25.07-.49.14-.73.22-.25.07-.5.15-.74.23-.35.11-.69.22-1.04.34-.03,0-.05.02-.08.03-.04.01-.08.03-.11.04-.27.09-.54.19-.8.29-.73.27-1.44.57-2.13.88-.34.16-.69.32-1.02.48-.14.06-.27.13-.41.2-.24.12-.48.25-.71.38-.17.09-.32.18-.48.27-.29.16-.56.32-.83.49-.3.18-.59.37-.87.56-.31.2-.6.41-.89.62-.16.11-.32.24-.47.36-.13.1-.26.2-.38.31-.13.1-.25.2-.37.31-.25.21-.48.42-.71.64-.12.11-.24.23-.36.35-.13.13-.27.27-.39.4-.13.13-.25.27-.38.41-.25.27-.48.56-.71.85-.22.28-.43.57-.62.85-.21.31-.41.64-.59.96-.18.31-.35.64-.5.96-.32.67-.58,1.36-.78,2.08-.03.13-.07.26-.1.39-.02.06-.03.13-.05.2-.02.06-.03.13-.04.2-.06.27-.11.54-.15.81,0,.05-.02.1-.03.15-.03.17-.04.32-.06.49,56.75-.25,113.52-.16,170.3,0,0-.22-.01-.43-.03-.64-.01-.23-.02-.45-.03-.67,0-.1-.01-.2-.02-.29-.03-.38-.06-.74-.09-1.1,0-.04,0-.08-.01-.11-.03-.32-.06-.64-.1-.94-.01-.15-.03-.3-.05-.45-.03-.3-.07-.59-.1-.88,0-.01,0-.03,0-.04-.03-.27-.06-.54-.1-.81-.06-.56-.12-1.11-.17-1.66-.03-.27-.04-.55-.06-.83-.01-.15-.02-.29-.02-.44,0-.22-.01-.45-.01-.67,0-1.64.2-3.42.78-5.66,1-3.79,11.28-21.01,14.45-22.8,4.98-2.83,21.64-1.97,23.57-6.85,2.86-7.24-2.27-24.51,10.64-33.45-.32-.55-.93-.8-1.74-.8-.1,0-.19,0-.29.01-.11,0-.22.01-.33.03-.1.01-.19.03-.29.04-.11.02-.23.04-.34.07,0,0-.02,0-.03,0-.13.03-.26.06-.4.1-.15.04-.29.08-.44.13-.06.02-.13.04-.19.06-.19.06-.39.13-.59.22-.6.23-1.23.52-1.88.87-.19.1-.38.2-.58.31-.24.14-.49.28-.74.43-.22.13-.44.27-.66.41-.22.14-.45.29-.67.44-.11.08-.22.15-.33.23-.22.15-.44.31-.66.47-.02.01-.04.03-.06.04-.14.1-.28.21-.42.32-.5.38-.99.78-1.47,1.19-.1.09-.19.17-.28.25-.1.09-.2.18-.31.27-.2.18-.4.37-.59.56-.15.14-.29.28-.43.43-.14.14-.27.28-.41.43-.18.2-.36.39-.53.59-.26.29-.5.59-.73.88-.12.15-.23.3-.34.45-.06.08-.13.17-.18.25-.11.17-.22.32-.32.49-.2.3-.37.6-.52.89-.05.09-.1.18-.14.27-.06.11-.11.21-.15.32-.09.2-.17.39-.24.59-.03.08-.06.17-.08.24-.03.08-.06.17-.08.25-.02.08-.04.17-.06.25-.02.08-.04.17-.06.25,0,.01-.01.03-.01.04-.03.15-.05.31-.06.46-.02.16-.03.32-.03.48,0,.11,0,.21.01.31,0,.1.02.2.03.31v.02c-.04-.17-.08-.34-.11-.5-.03-.13-.06-.27-.08-.4,0-.02-.01-.04-.01-.06-.03-.18-.06-.36-.08-.53-.04-.24-.07-.48-.1-.73-.01-.12-.03-.24-.03-.36,0-.12-.02-.24-.03-.36-.03-.55-.04-1.08-.01-1.6.01-.22.03-.45.04-.67.04-.44.1-.87.18-1.29.04-.21.08-.42.13-.62.05-.21.1-.41.16-.61.06-.19.11-.38.17-.55.07-.22.15-.43.23-.63.11-.28.23-.55.36-.82.07-.15.14-.29.21-.43.04-.08.09-.17.13-.25.08-.13.15-.27.24-.41.1-.16.19-.32.29-.48.01-.01.03-.03.03-.04.11-.17.23-.34.35-.51.11-.15.22-.3.33-.45.11-.15.24-.3.35-.44.03-.03.05-.06.08-.09.13-.15.27-.31.41-.46.14-.15.29-.31.43-.45.17-.17.35-.34.53-.51.05-.04.1-.09.15-.13.2-.17.39-.35.6-.52.15-.12.3-.24.45-.36h0c.31-.24.62-.46.95-.68.17-.11.33-.22.5-.33.17-.1.34-.21.51-.31.17-.1.34-.2.52-.3.17-.1.35-.2.53-.29.22-.11.43-.22.66-.33.35-.17.71-.33,1.08-.49.17-.07.34-.14.52-.21.35-.14.71-.27,1.06-.4.36-.13.73-.25,1.09-.36.14-.04.28-.09.42-.13.15-.04.3-.08.45-.12.21-.06.42-.11.63-.17.25-.06.5-.12.76-.18.25-.05.52-.11.77-.16.13-.03.26-.05.39-.08.39-.07.78-.13,1.18-.19.17-.03.35-.05.53-.07.18-.03.35-.04.53-.06.27-.03.53-.06.8-.08.27-.03.53-.05.8-.06.18-.01.36-.03.54-.03.18,0,.36-.01.54-.02.64-.02,1.29-.02,1.92,0,.57.01,1.13.04,1.69.08.35.03.7.06,1.06.1.24.03.48.05.73.08.22.03.43.06.64.09.24.03.48.07.72.11.35.06.69.12,1.04.19.55.11,1.09.24,1.64.38.54.14,1.08.29,1.61.46.3.1.59.19.89.3.29.1.59.21.87.32.31.11.6.24.9.37.03.01.07.03.1.04.15.07.31.14.46.21.14.06.27.12.41.18.23.11.45.22.67.34.21.11.42.22.63.34.23.12.45.25.67.39.11.06.22.13.33.2.25.15.49.31.73.47.45.3.88.62,1.31.95.43.33.83.67,1.23,1.04.35.32.69.64,1.01.99.11.11.22.23.32.35.02.01.03.03.05.05.02.02.03.04.05.06.02.02.04.04.06.06.09.1.18.2.26.31.15.17.29.34.43.51.01.02.03.03.04.05.14.17.27.35.41.53.03.04.06.08.09.13,0,0,.01.02.02.03.1.13.19.26.28.4,0,.01.01.02.02.03.07.1.14.2.21.31.12.18.24.37.35.55,3.95,6.55,5.9,24.97-2.28,19-1.17-.85-.11-24.92-14.44-20.52,8.93,2.78,8.89,19.63,12.92,23.57.6.59,5.4-.59,6.08,0,2.37,2.04,3.85,7.26,4.56,7.61,10.18,4.92,44.56-2.9,38.01,25.85-3.72-14.62-22.25-21.94-35.73-19.01,17.36,3.24,38.56,12.86,25.85,32.69.1.01.2.02.32.03.18.02.38.04.6.06.11.01.22.03.34.04.41.04.85.1,1.32.15.1.01.21.03.32.04.1.02.2.03.31.04.11.01.22.03.34.04.17.03.33.04.5.07.08.01.17.03.25.04.15.03.31.05.46.08.36.06.73.12,1.09.18.25.05.52.1.77.15.17.04.34.07.51.11,1.05.24,2.05.52,2.88.85.14.06.27.11.4.17.06.03.12.06.18.08.27.13.51.27.73.41.04.03.09.06.13.1.03.01.04.03.06.05.04.03.09.06.13.1.06.05.12.1.17.16.07.07.13.14.19.22.03.03.05.07.07.1.04.06.07.11.1.17.04.08.07.15.09.24,0,.04.02.08.03.12,0,.04.01.08.01.12.01.2-.03.42-.12.64.51,0,1.02,0,1.52,0-.04-.19-.08-.38-.11-.56,0-.03,0-.06-.01-.08-.08-.45-.14-.87-.18-1.29-.06-.6-.07-1.18-.05-1.73.01-.16.02-.32.03-.48.01-.13.03-.25.04-.38,0-.06.01-.11.02-.17.02-.13.04-.27.06-.39.04-.23.08-.45.13-.67.05-.22.11-.44.17-.65.04-.14.09-.28.13-.42.06-.15.11-.31.17-.46.12-.31.25-.6.4-.89.08-.14.15-.29.24-.43.16-.28.32-.55.5-.81t0,0c.18-.26.37-.52.57-.76.2-.25.42-.49.64-.73.11-.11.22-.23.34-.34.13-.13.25-.25.39-.38.13-.12.27-.24.41-.36.13-.11.27-.24.41-.35.14-.11.29-.22.43-.33.42-.32.85-.62,1.29-.9.22-.14.45-.28.67-.41.23-.13.45-.27.68-.39.04-.02.08-.04.11-.06.16-.09.32-.17.48-.25.32-.17.64-.33.96-.48.16-.08.32-.15.48-.22.16-.08.32-.15.48-.22.02,0,.03-.01.05-.03.22-.1.43-.19.65-.28.34-.15.69-.28,1.02-.41.13-.05.27-.11.41-.16.13-.05.27-.1.4-.15.27-.1.53-.2.79-.29.18-.06.35-.13.52-.18,1.02-.36,1.95-.66,2.69-.93.13-.04.24-.08.36-.13.17-.06.32-.12.46-.18.24-.1.44-.19.6-.28.08-.05.15-.09.21-.13.11-.08.18-.15.22-.23,2.23-4.37-3.14-23.13,3.04-28.89-6.26-2.45-5.53,8.86-6.84,9.88-8.67,6.75-3.13-17.97,12.17-22.81,16.98-5.37,35.59,4.54,24.32,22.81,2.19-9.46-4.72-16.51-14.44-15.97,12.94,6.66,5.62,25.93,6.08,27.37,2,6.26,25.4,9.11,31.17,11.4l3.81-2.28-18.25-7.61c.28-.14.57-.28.85-.4.06-.03.12-.06.18-.08.24-.11.48-.22.73-.31.27-.11.53-.22.8-.31.17-.06.33-.12.5-.17.3-.11.59-.2.88-.29.23-.07.46-.13.69-.19.3-.08.6-.15.9-.22.33-.07.66-.13.99-.18.24-.04.49-.08.73-.11.02,0,.04,0,.06,0,.36-.04.71-.08,1.06-.1.06,0,.11,0,.17,0,.34-.03.67-.03,1.01-.03h.03c.1,0,.19,0,.29,0,.1,0,.2,0,.29,0,.16,0,.32.01.48.02.12,0,.24.01.36.03.04,0,.1,0,.14.01.14.01.28.03.41.04.08.01.15.02.22.03.13.01.26.03.39.05.13.02.27.04.41.06.03,0,.06.01.09.01.25.04.5.1.74.15.09.01.17.04.26.06.17.04.32.08.49.12.32.09.65.18.97.29.16.05.32.11.48.17.11.04.23.08.34.13.2.08.39.15.59.24.01,0,.03,0,.03.01.15.06.29.12.43.19.15.06.31.14.46.21.3.15.59.3.88.46.29.16.58.33.86.51.29.18.56.36.83.55.14.1.27.19.41.29.27.2.53.4.8.62.25.22.51.43.76.66.13.11.25.23.38.35.12.11.24.23.36.35.1.1.19.19.29.29.02.03.04.04.07.07.19.2.39.41.57.62.15.17.29.34.44.52.06.07.12.14.18.22h0c.09.11.17.22.25.33.09.11.17.22.25.34.18.25.36.5.54.75h0c.11.17.22.32.32.48.08.13.17.26.25.39.09.14.18.29.26.43.06.1.12.2.18.31.11.18.21.38.31.57,0,.01.01.02.02.03.1.19.2.38.29.57.1.19.18.38.27.58.08.18.16.35.24.53.15.36.3.72.44,1.09.2.53.38,1.07.55,1.62,0,.02,0,.04.01.05.05.19.11.38.16.57.05.19.1.38.15.57.06.22.11.44.15.66.1.45.18.89.25,1.34.03.23.07.45.1.68.03.2.05.4.07.6.17,1.65.17,3.35-.01,5.05-.02.2-.04.4-.07.6-.06.46-.13.92-.22,1.39-.04.2-.08.41-.13.62,2.88.21,4.94.22,7.37-1.37.08-.04.16-.1.24-.15,1.22-9.48-2.3-24.3-11.4-28.89ZM75.9,164.98c-1.35-7.26,15.71-27.93,23.57-29.65,5.3-1.16,17.49,2.02,18.25,1.52,2.29-1.51,1.14-22.82,10.65-24.33,6.26-.59,15.76,14.99,15.97,19.77,5.82,2.33,12.36,1.68,18.25,3.04,5.93,3.19,10.22,7.9,15.2,12.16,2.71,8.25,4.78,19.17-1.52,26.61-14.33,16.93-32.67-13.68-50.18-9.88-3.63,4.28-7.23,8.89-10.65,12.92-12.15,14.34-38.25-5.24-39.53-12.16ZM240.88,153.58c-22.07,10.81-31.29-26.98-47.9-30.41-6.1-1.26-18.47,1.6-23.57,0-7.2-2.26-13.86-19.34-6.08-25.85,14.83-12.41,31.74,2.38,34.98,1.52,2.95-.79,7.07-15.98,16.73-13.69,7.06,5.87,7.55,10.93,3.8,18.25.95,7.81,15.92,9.72,20.53,13.68,7.89,6.78,13.37,30.69,1.51,36.49ZM364.05,220.48c-18.7,4.03-34.85-23.11-57.02-22.81-13.93.19-18.44,14.2-29.65,12.16-1.07-.19-17.34-11.84-17.49-12.92-.81-5.61,20.3-30.27,28.89-30.41-10.3-3.81-25.02,8.53-29.65,19.01-6.75-21.17,26.7-25.57,42.57-21.29,3.61-1.79,2.49-40.1,18.25-31.94,5.7,2.96,11.24,19.46,11.4,25.85,7.75,3.84,16.47,5.55,24.32,9.12l22.81,21.29c.5,8.6-3.83,29.64-14.45,31.94ZM439.32,145.98c-3.87.62-34.45.78-37.25,0-7.17-2-18.58-26.14-10.65-31.94,11.63-8.5,35.48-2.46,47.14,7.61,7.03-21.27,32.39-29.33,28.13,0,6.03,7.05,14.12,9.2,21.29,15.2,4.84,4.07,11.83,12.63,15.2,18.25-9.27,49.08-44.63,3.99-63.86-9.12ZM84.27,162.7l16.73-21.29c-4.88.8-23.02,17.56-16.73,21.29Z"/>
        <g>
          <path class="cls-7" d="M129.12,212.88c3.78-10.76,12.08-16.68,19.77-24.33,22.18,10.31,40.87-5.82,39.53-28.89l12.16-10.64c.86,1.61,7.71,9.27,7.6,9.88-.2,1.17-14.7,7.89-16.73,16.73-1.3,5.67,2.31,23.4,1.52,24.33-1.06,1.26-11.9,1.12-14.45,2.28-22.71,10.4-19.4,36.68-21.29,38.01-.93.66-21.81.55-22.81,0-1.24-.69-.02-19.47-5.32-27.37Z"/>
          <path class="cls-3" d="M177.78,147.49c-4.98-4.26-9.27-8.97-15.2-12.16-5.89-1.36-12.42-.71-18.25-3.04-.2-4.78-9.71-20.36-15.97-19.77-9.51,1.51-8.36,22.82-10.65,24.33-.76.5-12.94-2.68-18.25-1.52-7.86,1.72-24.92,22.39-23.57,29.65,1.29,6.92,27.38,26.51,39.53,12.16,3.42-4.03,7.02-8.64,10.65-12.92,17.5-3.79,35.85,26.81,50.18,9.88,6.3-7.45,4.23-18.36,1.52-26.61ZM84.27,162.7c-6.29-3.73,11.85-20.49,16.73-21.29l-16.73,21.29Z"/>
          <path class="cls-3" d="M240.88,153.58c-22.07,10.81-31.29-26.98-47.9-30.41-6.1-1.26-18.47,1.6-23.57,0-7.2-2.26-13.86-19.34-6.08-25.85,14.83-12.41,31.74,2.38,34.98,1.52,2.95-.79,7.07-15.98,16.73-13.69,7.06,5.87,7.55,10.93,3.8,18.25.95,7.81,15.92,9.72,20.53,13.68,7.89,6.78,13.37,30.69,1.51,36.49Z"/>
          <path class="cls-5" d="M148.89,188.55c-7.68,7.65-15.99,13.57-19.77,24.33-6.05-9-29.8-9.57-25.85-17.49.43-.87,14.2-6.27,17.49-8.36,2.27-1.45,9.64-10.56,10.64-10.64,1.06-.09,12.61,9.9,17.49,12.16Z"/>
          <path class="cls-5" d="M502.42,180.95c1.95-.29,4.1.2,6.08,0,4.27,1.9-7.78,25.55-7.6,31.93.1-14.83-31.42-18.95-32.69-20.53-4.68-5.82,18.69-3.36,20.53-3.8,4.06-.98,12.91-7.49,13.69-7.6Z"/>
          <path class="cls-5" d="M200.59,149.01l-12.16,10.65c-.13-2.25.08-4.57,0-6.84-5.72,2.11-6.12-1.45-10.65-5.33-4.98-4.26-9.27-8.97-15.2-12.16,11.72,2.72,19.33,10.56,20.52,10.65.85.05,2.45-12.3,10.65-10.65,2.67.74,5.5,11.19,6.84,13.68Z"/>
          <g>
            <path class="cls-7" d="M95.67,203.76c.59.69-1.76,3.31,3.04,6.08,4.64,2.68,10.47,2,15.21,4.56-.75,8.52,11.95,10.91,7.6,22.05-4.07,10.42-13.85-1.69-18.25-3.8-13.71-6.57-28.35-9.61-38.01,6.08-4.37-.06-17.66,3.47-22.05,1.52-15.31-24.12,23.41-26.79,25.09-29.65,1.51-2.57.47-19.29,6.08-23.57,12.82-3.21,5.06,1.89,6.84,3.04.82.53,2.85-3.26,8.36,3.8,1.5,1.93,1.24,8.75,1.52,9.12,1.17,1.56,4.24.38,4.56.76Z"/>
            <path class="cls-4" d="M103.27,232.65c-16.67,8.53-20.4,6.31-38.01,6.08,9.66-15.69,24.31-12.66,38.01-6.08Z"/>
            <path class="cls-5" d="M95.67,203.76c-.32-.38-3.4.8-4.56-.76-.28-.37-.02-7.2-1.52-9.12-5.51-7.06-7.54-3.27-8.36-3.8-1.78-1.15,5.98-6.25-6.84-3.04-8.01,2-7.75,4.1-12.92,10.64.52-24.01,38.86-18.53,34.21,6.08Z"/>
            <path class="cls-5" d="M113.92,214.4c-4.73-2.56-10.57-1.89-15.21-4.56,15.34-6.06,32.21,4.11,29.65,21.29-3.87-8.3-6.17-12.25-14.45-16.73Z"/>
          </g>
          <path class="cls-5" d="M190.71,206.8c-7.19,9.35-20.13,13.19-24.33,27.37-3.44-15.26,11.5-25.14,24.33-27.37Z"/>
          <path class="cls-5" d="M210.47,74.51c7.29-.38,18.32,8.43,15.21,16.73-9.88-11.31-14.96-16.14-28.13-5.32-1.16-5.24,9.76-11.24,12.92-11.4Z"/>
          <path class="cls-5" d="M128.36,103.4c12.24-3.38,17.28,10.15,20.53,19.01-8.77-5.09-11.58-18.47-25.09-11.4-2.41-2.02,4.13-7.48,4.56-7.6Z"/>
          <g>
            <path class="cls-3" d="M364.05,220.48c-18.7,4.03-34.85-23.11-57.02-22.81-13.93.19-18.44,14.2-29.65,12.16-1.07-.19-17.34-11.84-17.49-12.92-.81-5.61,20.3-30.27,28.89-30.41-10.3-3.81-25.02,8.53-29.65,19.01-6.75-21.17,26.7-25.57,42.57-21.29,3.61-1.79,2.49-40.1,18.25-31.94,5.7,2.96,11.24,19.46,11.4,25.85,7.75,3.84,16.47,5.55,24.32,9.12l22.81,21.29c.5,8.6-3.83,29.64-14.45,31.94Z"/>
            <path class="cls-10" d="M310.83,211.36c3.29-.03,20.26,20.29,28.89,22.81,13.75,4.01,26.8-5.9,29.65,5.32l-84.39.76c-6-8.29,23.64-28.87,25.85-28.89Z"/>
            <path class="cls-5" d="M312.35,121.65c12.58-1.33,23.27,11.74,21.29,24.33-2.2-11.36-11.1-25.45-24.33-19.77-5.43,2.33-9.49,13.52-14.45,15.97,1.05-8.61,7.95-19.52,17.49-20.53Z"/>
            <path class="cls-7" d="M378.5,188.55l-22.81-21.29c9.44,4.3,22.06,8.48,22.81,21.29Z"/>
          </g>
          <path class="cls-9" d="M155.73,115.56l12.16,13.69c-11.06,3.14-13.24-3.29-12.16-13.69Z"/>
          <g>
            <path class="cls-7" d="M100.99,141.42l-16.73,21.29c-6.29-3.73,11.85-20.49,16.73-21.29Z"/>
            <path class="cls-7" d="M100.99,141.42l-16.73,21.29c-6.29-3.73,11.85-20.49,16.73-21.29Z"/>
          </g>
          <g>
            <path class="cls-5" d="M452.24,89.71c7.65-.9,24.47,10.69,19.77,21.29l-2.28-6.84c-12.58-15.72-18.98-6.07-31.93,1.52-1.22-4.19,13.38-15.84,14.45-15.97Z"/>
            <path class="cls-7" d="M506.23,154.34c-.15,1.27-3.01.6-3.04.76-3.37-5.61-10.36-14.18-15.2-18.25,6.72-2.27,18.64,14.06,18.25,17.49Z"/>
            <g>
              <path class="cls-3" d="M487.98,136.85c-7.17-6.01-15.25-8.16-21.29-15.2,4.26-29.33-21.1-21.27-28.13,0-11.66-10.06-35.51-16.1-47.14-7.61-7.93,5.8,3.48,29.93,10.65,31.94,2.8.78,33.38.62,37.25,0,19.23,13.11,54.59,58.2,63.86,9.12-3.37-5.61-10.36-14.18-15.2-18.25ZM395.98,123.17c-1.89-4.47,6.65-8.66,9.12-9.13,6.12-1.17,13.12.71,19.01,2.28l-28.13,6.85Z"/>
              <path class="cls-7" d="M424.11,116.32l-28.13,6.85c-1.89-4.47,6.65-8.66,9.12-9.13,6.12-1.17,13.12.71,19.01,2.28Z"/>
              <path class="cls-4" d="M424.11,116.32l-28.13,6.85c-1.89-4.47,6.65-8.66,9.12-9.13,6.12-1.17,13.12.71,19.01,2.28Z"/>
            </g>
          </g>
        </g>
      </g>
    </g>
  </g>
</svg>